<svg xmlns="http://www.w3.org/2000/svg" viewBox="0 0 64 80" x="0px" y="0px"><title>a</title><g data-name="15 Cook"><path d="M10,20h1.906a4.061,4.061,0,0,0-.087.82,3.971,3.971,0,0,0,1.172,2.828c.87.871,6.716,5.352,9.28,5.352a1.707,1.707,0,0,0,1.255-.473c.929-.929.506-2.66-1.415-5.791a33.147,33.147,0,0,0-3.464-4.744A3.978,3.978,0,0,0,15,16.907V15a1,1,0,0,0-2,0v1.586l-1.293-1.293a1,1,0,0,0-1.414,1.414L11.586,18H10a1,1,0,0,0,0,2Zm7.233-.594c1.245,1.244,4.395,5.936,4.741,7.558-1.787-.375-6.447-3.607-7.569-4.73a2,2,0,1,1,2.828-2.828Z"/><path d="M50,36a5,5,0,1,0-5-5A5.006,5.006,0,0,0,50,36Zm0-8a3,3,0,1,1-3,3A3,3,0,0,1,50,28Z"/><path d="M50,32a1,1,0,1,0-.71-1.71,1.014,1.014,0,0,0,0,1.42A1.05,1.05,0,0,0,50,32Z"/><path d="M41,26a5,5,0,1,0-5-5A5.006,5.006,0,0,0,41,26Zm0-8a3,3,0,1,1-3,3A3,3,0,0,1,41,18Z"/><path d="M41,22a.99.99,0,0,0,1-1,1.033,1.033,0,0,0-.29-.71A1,1,0,1,0,41,22Z"/><path d="M25,29v1.5A2.5,2.5,0,0,0,27.5,33h.719l.811,3.242A1,1,0,0,0,30,37h2a1,1,0,0,0,.97-.758L33.781,33H34.5A2.5,2.5,0,0,0,37,30.5V29a6,6,0,0,0-12,0Zm10,1.5a.5.5,0,0,1-.5.5H33a1,1,0,0,0-.97.757L31.219,35h-.438l-.811-3.243A1,1,0,0,0,29,31H27.5a.5.5,0,0,1-.5-.5V30h8ZM34.873,28H27.127a4,4,0,0,1,7.746,0Z"/><path d="M14,28a1,1,0,0,0-2,0v3a1,1,0,0,0,2,0Z"/><path d="M12.29,34.29A1.025,1.025,0,0,0,12,35a1.007,1.007,0,0,0,1,1,1,1,0,1,0-.71-1.71Z"/><path d="M54,25a1,1,0,0,0,1-1V22a1,1,0,0,0-2,0v2A1,1,0,0,0,54,25Z"/><path d="M34,20V18a1,1,0,0,0-2,0v2a1,1,0,0,0,2,0Z"/><path d="M49,22a1,1,0,0,0,1-1V17a1,1,0,0,0-2,0v4A1,1,0,0,0,49,22Z"/><path d="M40.29,33.29a1,1,0,0,0,1.42,1.42A1.033,1.033,0,0,0,42,34a1,1,0,0,0-1.71-.71Z"/><path d="M17.29,34.29a1,1,0,1,0,1.42,0A1.045,1.045,0,0,0,17.29,34.29Z"/><path d="M37,12a1.036,1.036,0,0,0,.71-.29A1,1,0,1,0,36,11a.99.99,0,0,0,1,1Z"/><path d="M25.71,21.71A1,1,0,1,0,24,21a1,1,0,0,0,1.71.71Z"/><path d="M49,14a1,1,0,1,0-.71-1.71A1.028,1.028,0,0,0,48,13a.99.99,0,0,0,1,1Z"/><path d="M18.71,30.29A1.014,1.014,0,1,0,19,31,1.047,1.047,0,0,0,18.71,30.29Z"/><path d="M10.829,43.667A28,28,0,0,0,32,53a1,1,0,0,0,0-2,26.023,26.023,0,0,1-19.681-8.667,1,1,0,0,0-1.49,1.334Z"/><path d="M63,35H60a1,1,0,0,0-1,1v2H5V36a1,1,0,0,0-1-1H1a1,1,0,0,0,0,2H3v2a.3.3,0,0,0,.007.032.983.983,0,0,0,.062.311c.009.024.016.048.027.071a.371.371,0,0,0,.016.047A32.042,32.042,0,0,0,32,57,32.042,32.042,0,0,0,60.888,39.461c.007-.015.009-.031.016-.047s.018-.047.027-.071a.989.989,0,0,0,.062-.311A.3.3,0,0,0,61,39V37h2a1,1,0,0,0,0-2ZM32,55A30.026,30.026,0,0,1,5.7,40h52.61A30.027,30.027,0,0,1,32,55Z"/><path d="M26.553,18.9a1,1,0,0,0,.894,0C28.118,18.559,34,15.5,34,11.5A4.505,4.505,0,0,0,29.5,7a4.447,4.447,0,0,0-2.5.76A4.447,4.447,0,0,0,24.5,7,4.505,4.505,0,0,0,20,11.5C20,15.5,25.882,18.559,26.553,18.9ZM24.5,9a2.474,2.474,0,0,1,1.784.754,1.03,1.03,0,0,0,1.432,0A2.474,2.474,0,0,1,29.5,9,2.5,2.5,0,0,1,32,11.5c0,2.151-3.276,4.412-5,5.369-1.724-.957-5-3.218-5-5.369A2.5,2.5,0,0,1,24.5,9Z"/><path d="M52,44a.99.99,0,0,0,1-1,1.029,1.029,0,0,0-.29-.71A1,1,0,0,0,51,43a1.007,1.007,0,0,0,1,1Z"/><path d="M37,52a1,1,0,0,0,.71-1.71,1.047,1.047,0,0,0-1.42,0A1,1,0,0,0,37,52Z"/></g><text x="0" y="79" fill="#000000" font-size="5px" font-weight="bold" font-family="'Helvetica Neue', Helvetica, Arial-Unicode, Arial, Sans-serif">Created by Berkah Icon</text><text x="0" y="84" fill="#000000" font-size="5px" font-weight="bold" font-family="'Helvetica Neue', Helvetica, Arial-Unicode, Arial, Sans-serif">from the Noun Project</text></svg>